<svg width="24" height="24" viewBox="0 0 24 24" fill="none" xmlns="http://www.w3.org/2000/svg">
<path d="M10.3637 3C8.90728 3 7.4836 3.43187 6.27266 4.24099C5.06173 5.05011 4.11792 6.20015 3.56058 7.54567C3.00325 8.89119 2.85743 10.3718 3.14155 11.8002C3.42568 13.2286 4.12699 14.5406 5.15681 15.5704C6.18663 16.6003 7.4987 17.3016 8.92709 17.5857C10.3555 17.8698 11.8361 17.724 13.1816 17.1667C14.5271 16.6093 15.6771 15.6655 16.4863 14.4546C17.2954 13.2437 17.7273 11.82 17.7273 10.3636C17.7271 8.41069 16.9513 6.5378 15.5704 5.15688C14.1895 3.77597 12.3166 3.00012 10.3637 3V3Z" stroke="#AEAEAE" stroke-width="1.5" stroke-miterlimit="10"/>
<path d="M15.8573 15.8573L21 21" stroke="#AEAEAE" stroke-width="1.5" stroke-miterlimit="10" stroke-linecap="round"/>
</svg>
